<svg version="1.1" id="svg2" sodipodi:docname="hm-logo-data.svg" inkscape:version="1.2 (dc2aedaf03, 2022-05-15)" xmlns:inkscape="http://www.inkscape.org/namespaces/inkscape" xmlns:sodipodi="http://sodipodi.sourceforge.net/DTD/sodipodi-0.dtd" xmlns="http://www.w3.org/2000/svg" xmlns:svg="http://www.w3.org/2000/svg" viewBox="-0.02 -0.02 151.32 71.95">
  <defs id="defs6">
    <clipPath clipPathUnits="userSpaceOnUse" id="clipPath18">
      <path d="M 14.287,14.288 H 580.99 V 827.604 H 14.287 Z" id="path16"/>
    </clipPath>
    <clipPath clipPathUnits="userSpaceOnUse" id="clipPath28">
      <path d="M 0,0 H 595.276 V 841.89 H 0 Z" id="path26"/>
    </clipPath>
    <clipPath clipPathUnits="userSpaceOnUse" id="clipPath40">
      <path d="m 221.145,506.468 c -2.348,0 -4.252,-1.904 -4.252,-4.252 v 0 -162.542 c 0,-2.348 1.904,-4.251 4.252,-4.251 v 0 h 332.336 c 2.348,0 4.253,1.903 4.253,4.251 v 0 162.542 c 0,2.348 -1.905,4.252 -4.253,4.252 v 0 z" id="path38"/>
    </clipPath>
    <clipPath clipPathUnits="userSpaceOnUse" id="clipPath50">
      <path d="M 0,0 H 595.276 V 841.89 H 0 Z" id="path48"/>
    </clipPath>
    <clipPath clipPathUnits="userSpaceOnUse" id="clipPath58">
      <path d="m 215.893,507.469 h 342.84 V 334.423 h -342.84 z" id="path56"/>
    </clipPath>
    <clipPath clipPathUnits="userSpaceOnUse" id="clipPath62">
      <path d="m 221.145,506.469 c -2.348,0 -4.252,-1.905 -4.252,-4.252 V 339.675 c 0,-2.349 1.904,-4.252 4.252,-4.252 h 332.336 c 2.349,0 4.252,1.903 4.252,4.252 v 162.542 c 0,2.347 -1.903,4.252 -4.252,4.252 z" id="path60"/>
    </clipPath>
    <linearGradient x1="0" y1="0" x2="1" y2="0" gradientUnits="userSpaceOnUse" gradientTransform="matrix(310.07059,217.11377,217.11377,-310.07059,231.50415,312.3877)" spreadMethod="pad" id="linearGradient72">
      <stop style="stop-opacity: 1; stop-color: rgb(0, 94, 82); --darkreader-inline-stopcolor: #cac6bf;" offset="0" id="stop64" data-darkreader-inline-stopcolor=""/>
      <stop style="stop-opacity: 1; stop-color: rgb(0, 94, 82); --darkreader-inline-stopcolor: #cac6bf;" offset="0.1" id="stop66" data-darkreader-inline-stopcolor=""/>
      <stop style="stop-opacity: 1; stop-color: rgb(0, 160, 117); --darkreader-inline-stopcolor: #5cffd3;" offset="0.8" id="stop68" data-darkreader-inline-stopcolor=""/>
      <stop style="stop-opacity: 1; stop-color: rgb(0, 160, 117); --darkreader-inline-stopcolor: #5cffd3;" offset="1" id="stop70" data-darkreader-inline-stopcolor=""/>
    </linearGradient>
    <clipPath clipPathUnits="userSpaceOnUse" id="clipPath108">
      <path d="m 240.018,393.974 h 113.464 v 53.941 H 240.018 Z" id="path106"/>
    </clipPath>
  </defs>
  <sodipodi:namedview id="namedview4" pagecolor="#505050" bordercolor="#eeeeee" borderopacity="1" inkscape:showpageshadow="0" inkscape:pageopacity="0" inkscape:pagecheckerboard="0" inkscape:deskcolor="#505050" showgrid="false" inkscape:zoom="7.6508705" inkscape:cx="58.816836" inkscape:cy="44.243331" inkscape:window-width="1920" inkscape:window-height="1001" inkscape:window-x="-9" inkscape:window-y="-9" inkscape:window-maximized="1" inkscape:current-layer="g8"/>
  <g id="g8" inkscape:groupmode="layer" inkscape:label="geschaeftsbericht-fuer-geschaeftsjahr-2021-data" transform="matrix(1.3333333,0,0,-1.3333333,-320.02453,597.21999)">
    <g id="g12">
      <g id="g14" clip-path="url(#clipPath18)">
        <g id="g20" transform="matrix(606.05257,-28.580708,39.632211,840.39908,-25.237709,14.990832)"/>
      </g>
    </g>
    <g id="g34">
      <g id="g36" clip-path="url(#clipPath40)">
        <g id="g42" transform="matrix(350.35964,-16.52254,8.9177933,189.10139,207.7305,334.67941)"/>
      </g>
    </g>
    <g id="g102" style="fill: rgb(0, 160, 117); fill-opacity: 1; --darkreader-inline-fill: #5cffd3;" data-darkreader-inline-fill="">
      <g id="g104" clip-path="url(#clipPath108)" style="fill: rgb(0, 160, 117); fill-opacity: 1; --darkreader-inline-fill: #5cffd3;" data-darkreader-inline-fill="">
        <g id="g110" transform="translate(296.9764,431.5561)" style="fill: rgb(0, 160, 117); fill-opacity: 1; --darkreader-inline-fill: #5cffd3;" data-darkreader-inline-fill="">
          <path d="m 0,0 c -1.253,0 -2.268,1.016 -2.268,2.269 0,1.253 1.015,2.269 2.268,2.269 1.254,0 2.269,-1.016 2.269,-2.269 C 2.269,1.016 1.254,0 0,0 m 7.307,11.332 c 0,1.252 1.015,2.268 2.269,2.268 1.254,0 2.269,-1.016 2.269,-2.268 0,-1.254 -1.015,-2.27 -2.269,-2.27 -1.254,0 -2.269,1.016 -2.269,2.27 M 2.731,-17.504 h -5.46 c -0.125,0 -0.228,0.098 -0.236,0.223 l -0.843,13.804 c -0.63,0.086 -1.24,0.195 -1.828,0.322 l 0.304,-9.289 c 0.004,-0.134 -0.102,-0.245 -0.237,-0.245 h -5.048 c -0.121,0 -0.222,0.092 -0.234,0.212 L -12.54,3.697 c -0.834,0.793 -1.301,1.674 -1.301,2.601 0,3.514 6.662,6.363 14.882,6.363 0.487,0 0.971,-0.011 1.447,-0.031 0.131,-0.005 0.233,-0.114 0.233,-0.244 V 10.96 c 0,-0.138 -0.116,-0.247 -0.253,-0.243 -3.172,0.09 -6.043,-0.361 -8.296,-1.183 C -5.927,9.498 -5.99,9.402 -5.987,9.298 L -5.734,0.632 C -7.273,0.957 -8.836,1.485 -9.967,2.019 V 0.821 c 2.501,-1.26 6.039,-2.048 9.969,-2.048 2.031,0 3.958,0.211 5.691,0.588 L 5.908,6.302 C 5.912,6.409 5.845,6.508 5.741,6.541 3.583,7.244 1.024,7.483 -2.1,7.154 -2.24,7.139 -2.364,7.246 -2.364,7.387 v 1.451 c 0,0.118 0.084,0.22 0.2,0.241 1.089,0.191 2.241,0.294 3.433,0.294 6.628,0 12.119,-3.212 12.119,-7.212 0,-1.183 -0.49,-2.32 -1.354,-3.311 l -1.182,-11.327 c -0.013,-0.12 -0.114,-0.212 -0.235,-0.212 H 5.569 c -0.134,0 -0.241,0.111 -0.236,0.244 l 0.243,7.859 c 1.672,0.373 3.168,0.964 4.392,1.715 v 1.185 C 8.309,-2.517 6.189,-3.151 3.811,-3.477 L 2.967,-17.281 C 2.96,-17.406 2.857,-17.504 2.731,-17.504 M -11.48,14.09 c 0,1.254 1.017,2.269 2.27,2.269 1.253,0 2.27,-1.015 2.27,-2.269 0,-1.253 -1.017,-2.269 -2.27,-2.269 -1.253,0 -2.27,1.016 -2.27,2.269 m -34.182,-38.411 h -2.282 c -0.148,0 -0.269,-0.12 -0.269,-0.268 v -5.008 h -5.928 v 5.008 c 0,0.148 -0.121,0.268 -0.269,0.268 h -2.28 c -0.148,0 -0.268,-0.12 -0.268,-0.268 v -12.504 c 0,-0.148 0.12,-0.27 0.268,-0.27 h 2.28 c 0.148,0 0.269,0.122 0.269,0.27 v 5.031 h 5.928 v -5.031 c 0,-0.148 0.121,-0.27 0.269,-0.27 h 2.282 c 0.147,0 0.267,0.122 0.267,0.27 v 12.504 c 0,0.148 -0.12,0.268 -0.267,0.268 m 63.417,-6.967 c -0.028,0.542 -0.194,0.98 -0.494,1.309 -0.301,0.331 -0.715,0.495 -1.243,0.495 -1.011,0 -1.672,-0.601 -1.98,-1.804 z m 1.41,2.663 c 0.748,-0.881 1.122,-2.068 1.122,-3.565 v -0.786 c 0,-0.053 -0.042,-0.095 -0.093,-0.095 H 13.95 c 0.103,-0.762 0.409,-1.331 0.924,-1.704 0.514,-0.375 1.151,-0.562 1.915,-0.562 0.916,0 1.795,0.249 2.637,0.747 0.079,0.047 0.179,-0.006 0.179,-0.099 v -1.986 c 0,-0.029 -0.014,-0.059 -0.041,-0.078 -0.774,-0.552 -1.839,-0.829 -3.193,-0.829 -1.512,0 -2.73,0.455 -3.654,1.365 -0.925,0.909 -1.387,2.142 -1.387,3.697 0,1.54 0.433,2.794 1.299,3.763 0.865,0.969 1.973,1.451 3.322,1.451 1.395,0 2.466,-0.438 3.214,-1.319 m 8.515,1.165 c -0.209,0.102 -0.539,0.155 -0.994,0.155 -0.998,0 -1.731,-0.545 -2.2,-1.338 v 0.85 c 0,0.148 -0.121,0.269 -0.27,0.269 h -2.191 c -0.148,0 -0.269,-0.121 -0.269,-0.269 v -9.3 c 0,-0.148 0.121,-0.27 0.269,-0.27 h 2.192 c 0.148,0 0.269,0.122 0.269,0.27 v 5.827 c 0.103,0.441 0.322,0.781 0.659,1.025 0.338,0.241 0.741,0.362 1.212,0.362 0.46,0 0.857,-0.08 1.192,-0.237 0.08,-0.039 0.171,0.014 0.171,0.102 v 2.484 c 0,0.031 -0.012,0.058 -0.04,0.07 m 6.641,-4.576 3.844,4.237 c 0.095,0.104 0.019,0.275 -0.123,0.275 h -2.846 c -0.039,0 -0.077,-0.017 -0.103,-0.047 l -3.326,-3.85 v 6.833 c 0,0.148 -0.119,0.268 -0.269,0.268 h -2.192 c -0.147,0 -0.268,-0.12 -0.268,-0.268 v -12.505 c 0,-0.148 0.121,-0.27 0.268,-0.27 h 2.192 c 0.15,0 0.269,0.122 0.269,0.27 v 4.266 l 3.503,-4.484 c 0.027,-0.031 0.065,-0.052 0.106,-0.052 h 2.787 c 0.138,0 0.214,0.159 0.13,0.268 z M 9.523,-24.32 h -2.16 c -0.091,0 -0.176,-0.047 -0.225,-0.123 l -3.992,-6.26 -4.016,6.26 c -0.048,0.076 -0.133,0.123 -0.225,0.123 h -2.203 c -0.15,0 -0.269,-0.121 -0.269,-0.268 v -12.505 c 0,-0.148 0.119,-0.27 0.269,-0.27 h 2.213 c 0.148,0 0.269,0.122 0.269,0.27 v 7.975 l 3.895,-5.81 h 0.088 l 3.851,5.81 v -7.975 c 0,-0.148 0.121,-0.27 0.268,-0.27 h 2.237 c 0.149,0 0.269,0.122 0.269,0.27 v 12.505 c 0,0.147 -0.12,0.268 -0.269,0.268 m -17.287,-6.968 c -0.029,0.542 -0.195,0.98 -0.494,1.309 -0.303,0.331 -0.717,0.495 -1.245,0.495 -1.012,0 -1.673,-0.601 -1.98,-1.804 z m 1.409,2.663 c 0.748,-0.881 1.123,-2.068 1.123,-3.565 v -0.786 c 0,-0.053 -0.043,-0.095 -0.095,-0.095 h -6.244 c 0.102,-0.762 0.411,-1.331 0.924,-1.704 0.514,-0.375 1.152,-0.562 1.915,-0.562 0.917,0 1.797,0.249 2.638,0.747 0.079,0.047 0.179,-0.006 0.179,-0.097 v -1.988 c 0,-0.029 -0.014,-0.059 -0.04,-0.078 -0.775,-0.552 -1.839,-0.829 -3.196,-0.829 -1.511,0 -2.728,0.455 -3.653,1.365 -0.924,0.909 -1.385,2.142 -1.385,3.697 0,1.54 0.431,2.794 1.297,3.763 0.866,0.969 1.974,1.451 3.324,1.451 1.393,0 2.464,-0.438 3.213,-1.319 m -31.548,-5.348 c -0.117,0.265 -0.337,0.473 -0.661,0.628 -0.322,0.153 -0.682,0.231 -1.078,0.231 -0.47,0 -0.877,-0.103 -1.221,-0.308 -0.345,-0.206 -0.518,-0.507 -0.518,-0.903 0,-0.396 0.169,-0.696 0.506,-0.902 0.338,-0.206 0.75,-0.309 1.233,-0.309 0.396,0 0.756,0.078 1.078,0.232 0.324,0.154 0.544,0.362 0.661,0.627 z m 1.518,5.68 c 0.733,-0.662 1.101,-1.594 1.101,-2.796 v -6.004 c 0,-0.148 -0.119,-0.27 -0.27,-0.27 h -2.08 c -0.149,0 -0.269,0.122 -0.269,0.27 v 0.259 c -0.177,-0.176 -0.489,-0.337 -0.935,-0.484 -0.449,-0.146 -0.928,-0.22 -1.442,-0.22 -1.027,0 -1.89,0.287 -2.586,0.858 -0.696,0.573 -1.045,1.35 -1.045,2.333 0,0.925 0.363,1.68 1.089,2.267 0.726,0.587 1.633,0.88 2.717,0.88 0.94,0 1.673,-0.191 2.202,-0.572 v 0.551 c 0,0.469 -0.195,0.843 -0.583,1.121 -0.389,0.279 -0.929,0.418 -1.619,0.418 -0.909,0 -1.745,-0.226 -2.504,-0.68 -0.08,-0.048 -0.18,0.007 -0.18,0.1 v 2.088 c 0,0.034 0.018,0.066 0.047,0.084 0.857,0.524 1.935,0.784 3.232,0.784 1.35,0 2.392,-0.329 3.125,-0.987 m 8.551,0.987 c -1.115,0 -1.995,-0.372 -2.641,-1.121 v 0.635 c 0,0.147 -0.119,0.267 -0.268,0.267 h -2.192 c -0.149,0 -0.268,-0.12 -0.268,-0.267 v -9.301 c 0,-0.148 0.119,-0.27 0.268,-0.27 h 2.192 c 0.149,0 0.268,0.122 0.268,0.27 v 5.959 c 0.103,0.425 0.319,0.759 0.65,1.001 0.33,0.242 0.707,0.365 1.132,0.365 0.529,0 0.929,-0.16 1.2,-0.474 0.272,-0.317 0.407,-0.738 0.407,-1.266 v -5.585 c 0,-0.148 0.121,-0.27 0.269,-0.27 h 2.192 c 0.148,0 0.268,0.122 0.268,0.27 v 6.157 c 0,1.101 -0.304,1.981 -0.912,2.643 -0.609,0.659 -1.464,0.987 -2.565,0.987 m 9.997,-4.245 -1.1,0.33 c -0.382,0.117 -0.654,0.238 -0.814,0.361 -0.161,0.127 -0.242,0.313 -0.242,0.564 0,0.263 0.121,0.467 0.363,0.616 0.243,0.145 0.561,0.219 0.958,0.219 0.934,0 1.876,-0.355 2.823,-1.063 0.078,-0.058 0.192,-0.007 0.192,0.091 v 2.194 c 0,0.034 -0.018,0.066 -0.046,0.083 -0.9,0.568 -1.933,0.85 -3.102,0.85 -1.129,0 -2.054,-0.277 -2.772,-0.836 -0.721,-0.555 -1.078,-1.305 -1.078,-2.244 0,-0.807 0.237,-1.44 0.714,-1.903 0.476,-0.461 1.17,-0.818 2.08,-1.068 l 0.948,-0.263 c 0.394,-0.132 0.68,-0.266 0.856,-0.397 0.176,-0.132 0.265,-0.322 0.265,-0.573 0,-0.556 -0.484,-0.835 -1.454,-0.835 -0.556,0 -1.144,0.121 -1.76,0.363 -0.533,0.21 -1.011,0.486 -1.433,0.833 -0.079,0.065 -0.196,0.013 -0.196,-0.088 v -2.225 c 0,-0.031 0.015,-0.061 0.039,-0.078 0.862,-0.641 2.008,-0.962 3.44,-0.962 1.202,0 2.178,0.265 2.926,0.791 0.75,0.53 1.122,1.278 1.122,2.246 0,0.777 -0.22,1.405 -0.661,1.882 -0.44,0.476 -1.129,0.847 -2.068,1.112 m 65.787,4.026 h -2.214 c -0.148,0 -0.269,-0.12 -0.269,-0.267 v -5.982 c -0.102,-0.426 -0.315,-0.759 -0.637,-1.001 -0.324,-0.243 -0.697,-0.364 -1.123,-0.364 -0.529,0 -0.925,0.154 -1.189,0.462 -0.263,0.308 -0.395,0.734 -0.395,1.276 v 5.609 c 0,0.147 -0.121,0.267 -0.268,0.267 h -2.193 c -0.149,0 -0.268,-0.12 -0.268,-0.267 v -6.159 c 0,-1.1 0.303,-1.98 0.913,-2.641 0.608,-0.66 1.455,-0.99 2.542,-0.99 1.085,0 1.966,0.375 2.64,1.121 v -0.632 c 0,-0.148 0.121,-0.27 0.269,-0.27 h 2.192 c 0.149,0 0.269,0.122 0.269,0.27 v 9.301 c 0,0.147 -0.12,0.267 -0.269,0.267 m 8.516,0.065 c -0.211,0.102 -0.542,0.155 -0.994,0.155 -0.999,0 -1.733,-0.545 -2.201,-1.338 v 0.851 c 0,0.147 -0.121,0.268 -0.269,0.268 H 50.81 c -0.148,0 -0.269,-0.121 -0.269,-0.268 v -9.301 c 0,-0.148 0.121,-0.27 0.269,-0.27 h 2.192 c 0.148,0 0.269,0.122 0.269,0.27 v 5.827 c 0.102,0.441 0.322,0.781 0.66,1.025 0.337,0.241 0.74,0.362 1.209,0.362 0.461,0 0.858,-0.08 1.194,-0.237 0.08,-0.039 0.172,0.014 0.172,0.102 v 2.484 c 0,0.031 -0.014,0.058 -0.04,0.07" style="fill: rgb(0, 160, 117); fill-opacity: 1; fill-rule: nonzero; stroke: none; --darkreader-inline-fill: #5cffd3; --darkreader-inline-stroke: none;" id="path112" data-darkreader-inline-fill="" data-darkreader-inline-stroke=""/>
        </g>
      </g>
    </g>
  </g>
</svg>